<svg width="100" height="100" viewBox="0 0 100 100" fill="none" xmlns="http://www.w3.org/2000/svg">
<path d="M70.0834 7.95819H29.9167C21.0834 7.95819 13.8334 15.2082 13.8334 24.0415V82.7499C13.8334 90.2499 19.2084 93.4165 25.7917 89.7915L46.125 78.4999C48.2917 77.2915 51.7917 77.2915 53.9167 78.4999L74.25 89.7915C80.8334 93.4582 86.2084 90.2915 86.2084 82.7499V24.0415C86.1667 15.2082 78.9584 7.95819 70.0834 7.95819ZM65.0834 37.6249L48.4167 54.2915C47.7917 54.9165 47 55.2082 46.2084 55.2082C45.4167 55.2082 44.625 54.9165 44 54.2915L37.75 48.0415C36.5417 46.8332 36.5417 44.8332 37.75 43.6249C38.9584 42.4165 40.9584 42.4165 42.1667 43.6249L46.2084 47.6665L60.6667 33.2082C61.875 31.9999 63.875 31.9999 65.0834 33.2082C66.2917 34.4165 66.2917 36.4165 65.0834 37.6249Z" fill="#26935C"/>
</svg>
