<svg width="100" height="100" viewBox="0 0 100 100" fill="none" xmlns="http://www.w3.org/2000/svg">
<path d="M91.6667 94.7917H20.8334C12.2084 94.7917 5.20837 87.7916 5.20837 79.1666V8.33331C5.20837 6.62498 6.62504 5.20831 8.33337 5.20831C10.0417 5.20831 11.4584 6.62498 11.4584 8.33331V79.1666C11.4584 84.3333 15.6667 88.5417 20.8334 88.5417H91.6667C93.375 88.5417 94.7917 89.9583 94.7917 91.6667C94.7917 93.375 93.375 94.7917 91.6667 94.7917Z" fill="#26935C"/>
<path d="M20.8334 73.9583C20.125 73.9583 19.375 73.7083 18.7917 73.2083C17.5 72.0833 17.3334 70.125 18.4584 68.7917L37.5834 46.4583C39.6667 44.0417 42.6667 42.5833 45.8334 42.4583C49 42.375 52.125 43.5417 54.375 45.7917L58.3334 49.75C59.375 50.7917 60.7084 51.2917 62.2084 51.2917C63.6667 51.25 65 50.5833 65.9584 49.4583L85.0834 27.125C86.2084 25.8333 88.1667 25.6667 89.5 26.7917C90.7917 27.9167 90.9584 29.875 89.8334 31.2083L70.7084 53.5417C68.625 55.9583 65.625 57.4167 62.4584 57.5417C59.25 57.625 56.1667 56.4583 53.9167 54.2083L50 50.25C48.9584 49.2083 47.5834 48.6667 46.125 48.7083C44.6667 48.75 43.3334 49.4167 42.375 50.5417L23.25 72.875C22.5834 73.5833 21.7084 73.9583 20.8334 73.9583Z" fill="#26935C"/>
</svg>
