<svg width="100" height="100" viewBox="0 0 100 100" fill="none" xmlns="http://www.w3.org/2000/svg">
<path d="M76.9583 70.125L78.5833 83.2916C79 86.75 75.2917 89.1666 72.3333 87.375L57.9166 78.7916C56.9166 78.2083 56.6666 76.9583 57.2083 75.9583C59.2916 72.125 60.4167 67.7916 60.4167 63.4583C60.4167 48.2083 47.3333 35.7916 31.25 35.7916C27.9583 35.7916 24.75 36.2916 21.75 37.2916C20.2083 37.7916 18.7083 36.375 19.0833 34.7917C22.875 19.625 37.4583 8.33331 54.875 8.33331C75.2083 8.33331 91.6666 23.7083 91.6666 42.6666C91.6666 53.9166 85.875 63.875 76.9583 70.125Z" fill="#26935C"/>
<path d="M54.1666 63.4584C54.1666 68.4167 52.3333 73 49.25 76.625C45.125 81.625 38.5833 84.8334 31.25 84.8334L20.375 91.2917C18.5416 92.4167 16.2083 90.875 16.4583 88.75L17.5 80.5417C11.9166 76.6667 8.33331 70.4584 8.33331 63.4584C8.33331 56.125 12.25 49.6667 18.25 45.8334C21.9583 43.4167 26.4166 42.0417 31.25 42.0417C43.9166 42.0417 54.1666 51.625 54.1666 63.4584Z" fill="#26935C"/>
</svg>
